<?xml version="1.0" encoding="UTF-8" standalone="no"?>
<!DOCTYPE svg PUBLIC "-//W3C//DTD SVG 1.1//EN" "http://www.w3.org/Graphics/SVG/1.1/DTD/svg11.dtd">
<svg width="100%" height="100%" viewBox="0 0 577 549" version="1.1" xmlns="http://www.w3.org/2000/svg" xmlns:xlink="http://www.w3.org/1999/xlink" xml:space="preserve" xmlns:serif="http://www.serif.com/" style="fill-rule:evenodd;clip-rule:evenodd;stroke-linejoin:round;stroke-miterlimit:2;">
    <g id="Fundo" transform="matrix(1.478006,0,0,1.478006,-16.587114,-14.015828)">
        <clipPath id="_clip1">
            <rect x="11.223" y="0" width="411.878" height="383.706"/>
        </clipPath>
        <g clip-path="url(#_clip1)">
            <g transform="matrix(1,0,0,1,-333.061096,-217.074964)">
                <path d="M397.338,352.763C396.871,352.724 396.96,352.484 396.5,352.446C396.434,352.44 395.909,352.396 395.697,352.625C395.494,352.845 395.722,353.286 395.518,353.506C395.626,354.509 395.581,354.49 395.732,355.501C396.124,358.112 396.359,359.679 396.322,388.499C396.277,423.454 396.43,469.631 396.352,479.49C396.343,480.647 396.362,480.714 395.494,481.492C394.661,482.239 394.588,482.152 393.477,482.146C386.14,482.103 386.152,482.186 385.516,482.161C382.267,482.037 363.42,482.305 361.498,482.333C352.044,482.467 348.427,482.723 347.623,482.216C346.425,481.461 346.503,480.45 346.499,478.5C346.501,435.5 346.504,392.5 346.506,349.5C346.5,340.218 346.428,233.528 346.439,233.48C346.79,231.958 348.311,232.487 348.48,232.546C349.185,232.791 349.748,233.58 371.165,254.84C380.955,264.559 380.923,264.567 390.646,274.352C417.545,301.453 444.443,328.555 471.341,355.656C476.65,361.02 478.448,363.586 480.348,362.272C480.761,361.986 530.215,311.645 534.411,307.417C547.268,294.464 547.245,294.463 548.381,293.375C551.509,290.382 556.029,285.564 572.356,269.283C572.483,269.157 574.052,267.592 574.59,269.461C574.688,269.801 574.727,281.457 574.73,282.5C574.745,287.141 574.854,319.904 574.669,340.505C574.639,343.78 573.371,343.753 570.146,347.16C564.549,353.074 552.128,365.276 551.243,366.259C546.125,371.948 541.515,375.738 536.821,380.829C531.567,386.529 530.658,386.72 513.93,403.891C513.1,404.743 506.868,411.14 503.402,414.393C497.506,419.926 490.069,427.928 489.46,428.458C487.648,430.035 482.814,435.56 480.502,435.441C478.054,435.314 471.664,429.062 469.53,426.472C467.105,423.528 459.554,417.088 456.556,413.445C454.888,411.419 446.176,403.406 444.569,401.432C442.955,399.448 433.133,389.969 430.658,387.355C424.456,380.804 407.657,363.996 406.308,362.699C399.092,355.762 399.183,355.671 397.338,352.763Z" style="fill:rgb(198,203,204);"/>
            </g>
            <g transform="matrix(1,0,0,1,-333.061096,-217.074964)">
                <path d="M734.401,229.483C734.422,231.084 734.248,231.076 734.343,249.499C734.354,251.648 734.216,261.39 734.499,265.5C734.697,268.359 734.12,293.486 734.472,299.502C734.533,300.532 734.424,301.495 734.626,303.499C734.652,303.751 734.621,307.899 734.355,307.764C732.419,306.777 732.496,306.962 732.353,306.825C729.371,303.995 726.628,302.87 721.743,299.184C719.691,297.636 719.613,297.753 717.722,296.002C717.249,295.565 717.193,295.697 716.536,295.724C716.261,295.736 715.956,295.621 715.711,295.746C714.878,296.167 699.747,326.16 694.965,333.783C693.489,336.136 688.549,346.688 676.58,368.544C671.749,377.367 672.027,377.501 667.147,386.306C665.405,389.448 653.777,411.744 653.439,412.469C651.883,415.806 640.503,435.904 637.806,441.652C634.467,448.767 633.862,448.442 630.098,456.292C629.816,456.88 626.787,462.348 623.707,468.612C618.058,480.102 617.041,479.548 614.411,485.454C613.716,487.012 608.12,498.428 606.816,500.671C603.481,506.409 595.732,521.187 594.337,524.42C592.073,529.669 591.228,529.637 585.499,529.515C579.827,529.393 579.059,529.423 578.499,529.444C577.736,529.474 576.079,529.347 575.499,529.377C566.149,529.866 564.29,529.338 558.507,529.806C555.456,530.053 555.969,528.222 555.121,523.565C554.157,518.274 553.728,513.442 548.36,484.526C547.736,481.162 547.99,481.122 540.966,442.41C540.523,439.968 537.719,422.931 537.241,420.557C536.7,417.87 535.264,408.057 534.202,402.561C532.881,395.718 533.157,395.26 534.61,393.591C535.437,392.642 535.477,392.686 541.423,386.427C542.055,385.761 542.051,385.779 555.429,372.425C555.75,372.105 564.685,363.529 568.616,359.619C571.222,357.027 573.876,353.84 574.387,357.521C574.654,359.448 574.774,359.427 578.387,381.517C578.512,382.281 581.9,400.537 583.244,409.532C584.505,417.974 587.986,432.315 588.526,439.492C588.634,440.933 589.514,441.572 589.545,441.638C589.718,441.449 590.073,441.511 590.245,441.323C590.412,441.139 590.271,441.071 591.394,438.443C592.027,436.963 592.263,437.104 600.923,420.723C606.054,411.018 606.241,411.143 611.346,401.421C625.51,374.448 625.826,374.622 627.05,372.273C628.131,370.198 630.172,366.016 630.439,365.469C631.517,363.26 641.761,345.097 645.402,337.451C645.402,337.451 676.096,281.031 678.83,275.645C679.86,273.939 680.779,273.062 677.74,271.151C672.365,267.773 672.459,267.596 666.6,265.158C666.175,264.981 664.286,264.196 661.499,262.503L659.638,261.434C659.309,261.36 659.126,261.032 658.797,260.957C658.655,260.925 657.877,260.202 658.037,260.113C658.425,259.897 657.666,260.139 659.4,259.325C663.843,257.24 663.841,257.252 715.407,234.274C716.661,233.715 723.051,230.768 730.55,227.618C731.17,227.358 733.399,226.036 734.232,226.785C734.818,227.312 734.422,229.274 734.401,229.483Z" style="fill:rgb(179,157,112);"/>
            </g>
            <g transform="matrix(1,0,0,1,-333.061096,-217.074964)">
                <path d="M539.483,535.721C542.974,536.008 544.894,536.057 550.564,538.365C564.088,543.871 571.079,560.215 566.742,575.574C566.391,576.817 564.232,582.439 561.173,586.244C559.675,588.108 551.308,598.519 533.499,597.521C532.293,597.454 523.103,596.524 516.705,591.261C514.514,589.459 507.694,584.182 505.553,572.49C504.063,564.354 506.084,557.713 506.457,556.487C507.823,551.997 511.431,545.281 518.681,540.795C528.327,534.827 537.018,535.638 539.483,535.721ZM537.504,585.665C538.269,585.598 543.536,585.139 546.617,582.651C551.74,578.515 553.126,572.417 552.964,567.498C552.86,564.337 553.226,559.32 549.568,553.455C547.571,550.254 542.777,548.247 538.461,547.894C515.577,546.022 517.052,576.256 526.521,582.471C531.09,585.469 533.587,585.595 537.504,585.665ZM579.499,536.535C597.544,536.739 606.95,535.193 614.695,540.184C615.002,540.382 621.334,543.401 621.757,553.491C621.873,556.247 621.293,562.686 618.235,566.279C615.629,569.341 611.715,571.392 611.604,571.579C610.842,572.866 612.724,574.228 613.132,574.78C616.7,579.603 620.13,586.621 621.743,589.366C623.002,591.507 623.005,591.48 624.414,593.551C624.677,593.939 625.555,595.457 625.561,595.498C625.593,595.718 624.856,596.621 624.555,596.663C623.862,596.76 618.983,596.69 618.498,596.684C610.334,596.567 609.287,596.759 605.41,589.552C605.115,589.004 600.917,581.672 599.705,579.389C598.622,577.35 597.943,575.615 593.5,575.449C590.161,575.324 590.701,577.672 590.688,581.5C590.639,595.054 590.941,596.094 588.492,596.447C587.691,596.563 580.001,596.49 578.501,596.557C576.016,596.666 575.911,595.982 575.911,593.497C575.91,590.16 575.723,537.997 575.834,537.624C576.264,536.175 579.47,536.535 579.499,536.535ZM597.499,564.708C597.629,564.7 605.5,565.321 607.169,557.426C607.742,554.72 606.965,547.944 598.493,547.654C597.946,547.635 592.587,547.451 591.662,547.903C591.502,547.981 591.432,548.175 591.31,548.304C590.472,549.187 590.76,549.35 590.638,555.504C590.487,563.064 590.628,564.423 592.47,564.71C592.718,564.749 597.096,564.711 597.499,564.708ZM428.502,536.414C434.114,536.61 435.408,536.135 436.676,539.434L452.427,580.526C454.921,587.033 454.821,587.052 457.583,593.469C457.766,593.895 458.565,595.406 458.075,596.158C457.657,596.801 457.492,596.83 448.499,596.532C442.988,596.349 443.022,593.54 440.018,585.682C438.801,582.501 437.922,583.257 434.506,583.251C433.15,583.249 418.419,583.226 417.559,583.67C413.857,585.585 415.804,595.842 408.503,596.529C407.866,596.589 407.874,596.433 400.511,596.738C396.171,596.917 398.054,594.465 399.037,592.293C400.356,589.377 409.015,565.767 410.328,562.432C419.232,539.803 418.857,537.154 421.512,536.548C422.774,536.26 427.833,536.405 428.502,536.414ZM431.499,572.87C431.745,572.87 434.313,572.869 434.566,572.593C435.515,571.56 432.197,563.545 429.698,555.426C428.538,551.657 428.57,551.619 428.455,551.555C428.404,551.527 426.892,551.708 426.858,551.745C426.422,552.227 427.18,552.481 424.79,559.605C423.308,564.021 423.518,564.07 422.082,568.374C421.303,570.708 421.132,570.673 421.161,571.549C421.214,573.186 421.847,572.878 423.487,572.867C425.92,572.85 425.904,572.829 431.499,572.87ZM393.507,536.583C393.709,536.572 396.547,536.347 398.503,536.459C402.456,536.686 402.521,536.648 402.978,537.079C404.046,538.085 403.359,538.281 402.691,539.602C401.835,541.296 398.273,551.162 397.384,553.457C391.354,569.022 391.487,569.063 388.258,577.406C381.37,595.202 381.194,595.193 380.601,595.619C379.878,596.14 378.382,597.215 369.495,596.556C366.603,596.341 366.851,595.295 363.982,588.301C361.854,583.111 355.673,566.512 355.298,565.584C345.551,541.445 345.874,541.333 344.848,539.317C343.096,535.872 345.639,536.298 349.504,536.373C354.633,536.473 358.159,536.273 359.597,538.428C361.192,540.816 363.117,546.793 363.359,547.544C370.499,569.717 370.714,569.632 371.326,571.562C371.462,571.991 372.992,576.821 373.005,576.926C373.025,577.072 372.842,577.204 372.874,577.348C372.916,577.54 373.108,577.665 373.205,577.837C373.322,578.043 373.301,578.372 373.512,578.478C374.324,578.886 374.37,578.542 374.744,577.721C374.812,577.571 374.977,577.468 375.015,577.307C375.051,577.154 374.922,576.994 374.951,576.839C374.981,576.67 375.131,576.544 375.184,576.382C375.28,576.082 375.314,575.765 375.394,575.461C375.838,573.754 377.479,569.11 377.672,568.562C381.919,556.546 382.794,550.719 388.068,540.278C389.683,537.08 389.954,536.934 393.507,536.583ZM476.497,536.58C478.844,536.697 479.752,536.159 479.915,538.49C480.148,541.842 479.567,541.845 479.95,580.488C479.953,580.723 479.979,583.354 479.996,583.423C480.324,584.717 480.173,585.121 481.517,585.178C483.036,585.241 483.017,584.894 500.513,585.179C503.789,585.232 503.714,586.222 503.713,589.502C503.711,594.652 503.258,595.507 502.969,595.876C501.837,597.319 501.409,596.536 485.505,596.723C482.543,596.758 470.778,596.669 469.497,596.659C466.21,596.634 465.137,596.809 465.111,593.519C464.989,577.995 465.229,578.017 465.078,562.509C465.059,560.588 464.853,539.434 464.956,538.504C465.201,536.287 466.841,536.457 468.499,536.451C472.808,536.437 475.069,536.537 476.497,536.58ZM356.092,512.487C356.162,515.493 356.164,515.477 356.156,518.492C356.132,527.643 357.164,529.759 353.524,529.832C348.994,529.923 347.473,529.92 347.352,527.52C347.17,523.906 347.287,504.501 347.299,502.499C347.361,492.379 346.817,490.08 348.473,489.437C349.609,488.995 353.816,489.231 354.522,489.326C357.663,489.746 357.791,490.837 362.852,500.309C367.144,508.34 368.518,512.021 368.711,512.378C368.79,512.523 369.585,513.99 370.476,513.45C370.87,513.212 370.872,513.174 373.121,508.335C375.015,504.26 375.131,504.332 377.12,500.312C379.37,495.765 381.657,490.498 382.73,489.857C384.428,488.843 391.015,489.395 391.482,489.548C392.776,489.971 392.59,490.447 392.589,501.499C392.586,528.002 392.682,528.147 391.997,528.993C391.667,529.4 390.986,530.24 385.479,529.64C385.302,529.621 384.015,529.481 383.589,528.462C382.873,526.753 383.809,509.995 383.898,508.392L381.376,508.422C381.16,509.052 380.25,512.264 377.867,516.717C375.99,520.223 374.081,523.956 373.524,524.522C372.363,525.7 369.234,526.22 367.484,525.541C366.843,525.292 365.31,524.697 362.662,518.426C360.735,513.862 360.523,513.977 358.667,509.397C358.345,509.604 356.57,509.166 356.248,509.373C355.976,509.548 356.352,511.929 356.092,512.487ZM442.087,498.513C441.941,498.352 441.996,490.603 442.252,490.397C442.454,490.226 442.51,489.923 442.712,489.752C443.324,489.234 445.267,489.211 445.494,489.208C448.904,489.169 450.682,489.251 451.267,489.762C451.824,490.248 451.826,490.374 451.896,502.501C452.043,528.1 452.098,528.337 451.206,529.163C450.44,529.872 448.516,529.738 448.512,529.738C443.471,529.788 442.279,529.862 442.167,526.537C442.083,524.035 442.087,500.755 442.087,498.513ZM414.49,489.258C417.769,489.253 421.146,488.824 422.239,490.646C422.393,490.902 426.624,501.537 427.364,503.552C435.514,525.723 435.964,525.532 436.663,527.461C436.72,527.619 437.204,528.956 436.543,529.554C436.221,529.845 434.654,529.758 434.489,529.749C430.391,529.521 427.787,530.101 426.498,527.501C424.753,523.98 424.752,521.518 422.443,520.899C421.827,520.734 411.437,520.848 410.388,521.148C408.083,521.807 407.698,527.01 405.699,528.754C405.26,529.137 404.61,529.704 398.48,529.735C398.3,529.736 396.654,529.745 396.601,528.485C396.581,528.029 397.454,525.746 397.543,525.513C398.866,522.053 399.776,519.323 400.544,517.517C405,507.035 404.659,506.925 410.345,492.434C411.729,488.908 412.844,489.495 414.49,489.258ZM416.431,500.268C416.22,500.36 416.114,499.731 415.902,499.822C415.64,499.936 415.601,502.717 412.868,509.635C411.797,512.347 411.374,512.383 411.857,513.222C412.321,514.027 412.487,513.827 413.426,513.862C420.657,514.137 420.849,513.74 421.119,513.184C421.653,512.08 419.06,507.592 418.211,502.61C418.18,502.428 418.041,501.612 417.647,500.372L416.431,500.268ZM470.568,522.089C471.01,522.12 472.888,522.502 474.632,521.768C477.107,520.727 478.485,515.968 473.58,514.303C467.898,512.374 458.317,511.383 458.879,500.518C459.043,497.346 461.118,490.533 469.425,489.138C469.836,489.069 476.873,487.46 483.603,491.355C485.59,492.505 485.668,493.902 484.195,496.299C481.202,501.169 479.159,497.197 474.504,496.477C468.84,495.601 466.131,501.499 471.424,503.656C477.15,505.99 487.373,506.479 486.17,518.457C485.864,521.498 483.708,526.68 478.653,528.834C469.081,532.914 458.219,526.529 457.733,525.368C457.097,523.849 460.032,519.715 461.435,519.311C462.97,518.869 465.326,520.052 465.633,520.206C468.008,521.399 468.013,521.366 470.568,522.089Z" style="fill:rgb(143,148,150);"/>
            </g>
        </g>
    </g>
</svg>
